Coordinates
version=1
nRows=20
nColumns=34
inDegrees=yes

Units are S.I. units (second, meters, Newtons, ...)
If the header above contains a line with 'inDegrees', this indicates whether rotational values are in degrees (yes) or radians (no).

endheader
time	pelvis_tilt	pelvis_list	pelvis_rotation	pelvis_tx	pelvis_ty	pelvis_tz	hip_flexion_r	hip_adduction_r	hip_rotation_r	knee_angle_r	ankle_angle_r	subtalar_angle_r	mtp_angle_r	hip_flexion_l	hip_adduction_l	hip_rotation_l	knee_angle_l	ankle_angle_l	subtalar_angle_l	mtp_angle_l	lumbar_extension	lumbar_bending	lumbar_rotation	arm_flex_r	arm_add_r	arm_rot_r	elbow_flex_r	pro_sup_r	arm_flex_l	arm_add_l	arm_rot_l	elbow_flex_l	pro_sup_l
      0.00000000	     -1.16873382	     -6.86825677	      4.48562853	     -9.17991272	      0.86393233	      0.45235840	     -0.97894649	      3.98291371	     -0.33527667	      6.17254889	      6.06541484	    -13.22147662	      0.00000000	      0.33213136	     -6.31764026	     -5.61779082	     10.05815185	      4.70324358	    -25.60099716	      0.00000000	     15.68759294	      2.59917132	     17.87767677	   -297.62580430	    -82.06096105	     -1.81173198	     96.87697950	     94.88405984	   -265.53265437	    -20.43365633	     28.77762857	     60.19353514	    110.66303452
      0.01666670	      2.20421466	     -5.67901663	      4.71067348	     -9.17812611	      0.87399269	      0.45156495	     -5.00370714	      3.71980238	     -0.56896303	      5.27907474	      8.05189955	    -10.94384220	      0.00000000	     -3.96352400	     -4.80359092	     -7.06841415	      8.58665984	      5.28452041	    -24.91957447	      0.00000000	     11.46083457	      1.75184862	     16.69280910	   -299.63925777	    -77.19010254	     -5.48740714	     98.96895629	     95.53974470	   -269.98397050	    -25.31629285	     28.88172433	     70.15256001	    111.96898597
      0.03333330	      2.04115355	     -4.22232858	      4.36977610	     -9.17765727	      0.87703453	      0.45235981	     -5.50071030	      2.23481631	     -2.35566113	      3.86069474	      7.20602495	     -8.41651480	      0.00000000	     -4.33051928	     -3.11636565	     -8.74347066	      8.16846568	      6.51952668	    -22.80797517	      0.00000000	     11.79547028	      0.29444754	     15.90792238	   -302.07896094	    -73.56686094	     -9.51389126	    101.67377908	     97.64702961	   -272.69418995	    -27.61909726	     27.13966529	     73.99538009	    113.18740758
      0.05000000	      4.01959079	     -3.75069038	      4.54076008	     -9.17552490	      0.87806609	      0.45180684	     -8.66877517	      1.72203049	     -2.36387680	      1.93424405	      5.67240843	     -7.68288109	      0.00000000	     -7.54513837	     -2.53425915	     -9.21433623	      6.40718897	      5.39341205	    -23.09299636	      0.00000000	     10.07537867	     -0.19722358	     16.45757913	   -304.79127991	    -73.10276822	    -13.32340552	    102.07834415	    101.71085641	   -273.75652928	    -25.49359863	     24.56444525	     73.39645145	    115.47412179
      0.06666670	      4.19768560	     -3.43817388	      4.28398979	     -9.17402107	      0.87871258	      0.45235367	     -9.29235367	      1.33428919	     -1.87611082	      1.25655196	      5.18751551	     -7.36254292	      0.00000000	     -8.30400788	     -1.99771676	     -9.32603058	      5.44659199	      4.93167805	    -23.05513556	      0.00000000	     10.43176263	     -0.44003341	     16.76150944	   -305.70982350	    -72.86649992	    -13.27423585	    102.96346193	    102.16967084	   -274.25936390	    -25.15770654	     24.61323105	     73.31047503	    115.78902221
      0.08333330	      5.94252348	     -3.08275592	      4.64219276	     -9.17635908	      0.88251437	      0.45159764	    -11.75212470	      1.14796401	     -0.91374530	      0.11024355	      3.06700892	     -9.09897442	      0.00000000	    -10.38569892	     -1.65889704	     -8.64359613	      4.89819908	      3.53076538	    -24.41305954	      0.00000000	      8.15628343	     -0.51014274	     18.18085596	   -308.15742316	    -75.11829240	    -16.83642847	    103.94290458	    104.81081630	   -273.72723516	    -24.76457000	     25.57726709	     74.11265327	    117.68088792
      0.10000000	      6.15180728	     -3.01478817	      4.89957762	     -9.17535759	      0.88433632	      0.45119110	    -12.07271692	      1.11573093	     -1.15669817	      0.00000000	      2.22648187	     -8.86385926	      0.00000000	    -10.57948411	     -1.66608494	     -8.85479885	      4.88365194	      3.02765315	    -24.24282665	      0.00000000	      8.46516553	     -0.24689558	     18.48593462	   -308.70025169	    -75.18300667	    -16.96429575	    104.02571174	    104.95734021	   -274.48464045	    -25.00566101	     25.99915286	     74.07978338	    117.83410341
      0.11666670	      6.31511234	     -2.94159625	      5.12615738	     -9.17673561	      0.88209614	      0.45148710	    -12.20411943	      1.11983028	     -1.31184784	      0.00000000	      1.49267049	     -8.83805957	      0.00000000	    -10.58727434	     -1.66446752	     -8.90142975	      5.00695077	      2.55395440	    -24.13585883	      0.00000000	      8.41864998	     -0.25570803	     18.63735737	   -308.95268449	    -75.22396847	    -17.05604131	    104.14380399	    105.04055719	   -274.65896131	    -24.93582709	     26.37895522	     74.07964979	    117.94359019
      0.13333330	      4.38024518	     -3.04997558	      5.96890334	     -9.17586057	      0.88051601	      0.45140862	    -10.10696796	      1.31663999	     -1.94409425	      0.00000000	     -0.87801414	    -11.08234950	      0.00000000	     -8.08262555	     -1.75298905	     -5.97113113	      5.42960730	     -1.73145416	    -30.20381425	      0.00000000	     10.68970942	     -2.67681597	     24.06134065	   -366.94012819	    -76.81314010	    -75.37063923	    107.17212395	    119.74817918	   -269.69468374	    -15.81080115	     32.84487636	     64.95913037	    119.74817918
      0.15000000	      6.99890989	     -2.81680533	      5.48154194	     -9.17800745	      0.88290857	      0.45215451	    -12.73142723	      1.24421536	     -0.32699230	      0.00000000	     -2.14661520	    -13.06927453	      0.00000000	    -11.36238753	     -1.69547351	     -8.16176893	      4.53952697	      0.15380255	    -26.43809267	      0.00000000	      6.60914504	     -2.62029828	     25.07594006	   -368.46492850	    -77.54813784	    -79.47111777	    107.74510323	    115.68438402	   -268.81585570	    -15.36556251	     32.00350361	     66.73914665	    119.74817918
      0.16666670	      6.97488168	     -2.83216361	      5.68752223	     -9.17904850	      0.88302001	      0.45190078	    -12.54694366	      1.30537694	     -0.49652947	      0.00000000	     -2.27454185	    -13.13692093	      0.00000000	    -11.33777534	     -1.75704673	     -8.49757787	      4.29625231	      0.00748266	    -26.50199560	      0.00000000	      6.41758333	     -2.71828927	     24.72086109	   -368.55400243	    -77.52624559	    -79.50268321	    107.88282214	    115.59673333	   -268.82424359	    -15.17865573	     32.07313729	     66.61799860	    119.74817918
      0.18333330	      7.48389480	     -2.69979897	      6.01389359	     -9.17864866	      0.88359250	      0.45206155	    -12.98646653	      1.34448664	     -0.01536275	      0.00000000	     -4.23561393	    -15.72415932	      0.00000000	    -12.06632729	     -1.71207678	     -7.55816566	      3.66279145	     -2.50691711	    -28.79565849	      0.00000000	      6.11229213	     -3.38504502	     25.23978543	   -372.89022569	    -76.24297476	    -83.32677452	    107.78680032	    110.27249752	   -266.96007288	    -13.43135314	     35.50125604	     62.70740233	    119.74817918
      0.20000000	      7.55193697	     -2.70443010	      6.13135926	     -9.18121348	      0.88868208	      0.45164695	    -12.90657723	      1.39682809	     -0.26734053	      0.00000000	     -4.56722690	    -15.63652541	      0.00000000	    -11.95061227	     -1.83576562	     -7.57299609	      4.04465597	     -2.79840737	    -28.52823460	      0.00000000	      5.84520705	     -3.38935072	     25.11285447	   -373.18575276	    -76.01141151	    -83.32141992	    108.16245320	    110.16512234	   -267.15181353	    -13.52564987	     35.50306459	     62.71860849	    119.74817918
      0.21666670	      7.56447712	     -2.69641341	      6.15942625	     -9.18037094	      0.88683556	      0.45160317	    -12.81770565	      1.38208533	     -0.26962880	      0.00000000	     -4.57129642	    -15.63632437	      0.00000000	    -12.00370959	     -1.85580163	     -7.57844871	      4.06900724	     -2.80120268	    -28.52762917	      0.00000000	      5.81889148	     -3.39085708	     25.10732038	   -373.19199646	    -76.01064169	    -83.31966739	    108.17069754	    110.16316520	   -267.15834125	    -13.51909589	     35.50658325	     62.71966750	    119.74817918
      0.23333330	      7.66994381	     -2.72615492	      6.63981890	     -9.18290256	      0.88199213	      0.45123589	    -12.78917861	      1.51617945	     -0.91479272	      0.00000000	     -4.99345917	    -16.19768777	      0.00000000	    -11.60855767	     -2.09749155	     -6.94151165	      4.98557360	     -2.43224415	    -28.38181302	      0.00000000	      5.23636828	     -3.37689195	     24.38795296	   -373.96938172	    -76.61757615	    -83.74867612	    109.11447996	    109.72140735	   -266.59745962	    -13.91687771	     35.32505420	     62.85844306	    119.74817918
      0.25000000	      9.66525936	     -2.67639029	      6.53337477	     -9.18550035	      0.88503046	      0.45135530	    -14.75662018	      1.60905394	     -0.24787841	      0.00000000	     -5.49140468	    -17.38011048	      0.00000000	    -13.76091962	     -2.20371806	     -6.77748446	      4.90652730	     -2.01831753	    -27.86242223	      0.00000000	     -5.01169292	     -3.09999504	     41.73238936	   -441.97531570	    -44.29999971	   -155.39733136	    114.10361099	     66.21976313	   -262.94366872	     -0.29333503	     28.37477699	     61.97696978	    119.74817918
      0.26666670	      9.69995938	     -2.72766409	      6.41208385	     -9.18517211	      0.88542629	      0.45162526	    -14.74313284	      1.62761917	     -0.26967939	      0.00000000	     -5.47100501	    -17.43766392	      0.00000000	    -13.70181623	     -2.26706686	     -6.40957693	      5.18509960	     -1.97978392	    -27.76024041	      0.00000000	     -5.03109207	     -3.06681911	     41.98738763	   -442.06507608	    -44.44493653	   -155.42182036	    114.11421419	     66.27955047	   -262.73401040	     -0.38551318	     28.29165063	     62.06064598	    119.74817918
      0.28333330	      9.85006122	     -2.68312130	      6.96414791	     -9.18608375	      0.88387084	      0.45089699	    -14.90128689	      1.72693064	     -0.43935763	      0.00000000	     -6.15341059	    -18.52727844	      0.00000000	    -13.36550782	     -2.42123697	     -5.41965332	      6.04945071	     -1.25634170	    -27.74412756	      0.00000000	     -5.54284778	     -2.95794134	     41.35123770	   -443.11637780	    -44.88712995	   -157.22316375	    113.89062967	     67.36179565	   -262.66744253	     -1.12228417	     27.63061785	     63.23361472	    119.74817918
      0.30000000	      9.92124055	     -2.68398922	      6.96669558	     -9.18417896	      0.88568595	      0.45059474	    -14.99262460	      1.73306247	     -0.41170260	      0.08750916	     -6.14439881	    -18.53726167	      0.00000000	    -13.45001343	     -2.45454466	     -5.37339261	      6.13088531	     -1.23464688	    -27.75342256	      0.00000000	     -5.40456357	     -3.00155700	     41.41364728	   -443.10740620	    -44.86270967	   -157.24388616	    113.92460439	     67.37484706	   -262.68662237	     -1.17251328	     27.61531155	     63.25430719	    119.74817918
      0.31666670	     10.17259978	     -2.59509118	      6.95939491	     -9.18573339	      0.88595684	      0.45090492	    -15.11627095	      1.63478767	     -0.19046095	      0.46649015	     -5.99517440	    -18.63693615	      0.00000000	    -13.63592288	     -2.38235984	     -4.96280405	      6.32883745	     -1.01131741	    -27.85458409	      0.00000000	     -5.57165226	     -3.01047984	     41.64585117	   -442.99098887	    -44.79655262	   -157.32303682	    114.26391454	     67.46331801	   -263.30925530	     -1.02105953	     27.77418246	     63.44016461	    119.74817918
